HIERARCHY
ROOT Hips
{
	OFFSET 0.00000 0.00000 0.00000
	CHANNELS 6 Xposition Yposition Zposition Zrotation Yrotation Xrotation 
	JOINT LHipJoint
	{
		OFFSET 0 0 0
		CHANNELS 3 Zrotation Yrotation Xrotation
		JOINT LeftUpLeg
		{
			OFFSET 1.62329 -1.80800 0.67318
			CHANNELS 3 Zrotation Yrotation Xrotation
			JOINT LeftLeg
			{
				OFFSET 2.57139 -7.06484 0.00000
				CHANNELS 3 Zrotation Yrotation Xrotation
				JOINT LeftFoot
				{
					OFFSET 2.52017 -6.92413 0.00000
					CHANNELS 3 Zrotation Yrotation Xrotation
					JOINT LeftToeBase
					{
						OFFSET 0.23295 -0.64001 2.10214
						CHANNELS 3 Zrotation Yrotation Xrotation
						End Site
						{
							OFFSET 0.00000 -0.00000 1.10139
						}
					}
				}
			}
		}
	}
	JOINT RHipJoint
	{
		OFFSET 0 0 0
		CHANNELS 3 Zrotation Yrotation Xrotation
		JOINT RightUpLeg
		{
			OFFSET -1.48061 -1.80800 0.67318
			CHANNELS 3 Zrotation Yrotation Xrotation
			JOINT RightLeg
			{
				OFFSET -2.63258 -7.23296 0.00000
				CHANNELS 3 Zrotation Yrotation Xrotation
				JOINT RightFoot
				{
					OFFSET -2.54779 -7.00000 0.00000
					CHANNELS 3 Zrotation Yrotation Xrotation
					JOINT RightToeBase
					{
						OFFSET -0.23067 -0.63376 2.12161
						CHANNELS 3 Zrotation Yrotation Xrotation
						End Site
						{
							OFFSET -0.00000 -0.00000 1.11000
						}
					}
				}
			}
		}
	}
	JOINT LowerBack
	{
		OFFSET 0 0 0
		CHANNELS 3 Zrotation Yrotation Xrotation
		JOINT Spine
		{
			OFFSET -0.02108 2.07573 -0.16981
			CHANNELS 3 Zrotation Yrotation Xrotation
			JOINT Spine1
			{
				OFFSET 0.05070 2.08439 -0.03141
				CHANNELS 3 Zrotation Yrotation Xrotation
				JOINT Neck
				{
					OFFSET 0 0 0
					CHANNELS 3 Zrotation Yrotation Xrotation
					JOINT Neck1
					{
						OFFSET -0.10731 1.60408 0.31370
						CHANNELS 3 Zrotation Yrotation Xrotation
						JOINT Head
						{
							OFFSET 0.08411 1.65679 -0.30822
							CHANNELS 3 Zrotation Yrotation Xrotation
							End Site
							{
								OFFSET 0.03911 1.69149 -0.14146
							}
						}
					}
				}
				JOINT LeftShoulder
				{
					OFFSET 0 0 0
					CHANNELS 3 Zrotation Yrotation Xrotation
					JOINT LeftArm
					{
						OFFSET 3.52315 0.73219 -0.54694
						CHANNELS 3 Zrotation Yrotation Xrotation
						JOINT LeftForeArm
						{
							OFFSET 5.32462 -0.00000 -0.00000
							CHANNELS 3 Zrotation Yrotation Xrotation
							JOINT LeftHand
							{
								OFFSET 3.48402 -0.00000 -0.00000
								CHANNELS 3 Zrotation Yrotation Xrotation
								JOINT LeftFingerBase
								{
									OFFSET 0 0 0
									CHANNELS 3 Zrotation Yrotation Xrotation
									JOINT LeftHandIndex1
									{
										OFFSET 0.57248 -0.00000 -0.00000
										CHANNELS 3 Zrotation Yrotation Xrotation
										End Site
										{
											OFFSET 0.46154 -0.00000 -0.00000
										}
									}
								}
								JOINT LThumb
								{
									OFFSET 0 0 0
									CHANNELS 3 Zrotation Yrotation Xrotation
									End Site
									{
										OFFSET 0.46859 -0.00000 0.46859
									}
								}
							}
						}
					}
				}
				JOINT RightShoulder
				{
					OFFSET 0 0 0
					CHANNELS 3 Zrotation Yrotation Xrotation
					JOINT RightArm
					{
						OFFSET -3.41766 0.93592 -0.10019
						CHANNELS 3 Zrotation Yrotation Xrotation
						JOINT RightForeArm
						{
							OFFSET -5.33589 -0.00000 -0.00000
							CHANNELS 3 Zrotation Yrotation Xrotation
							JOINT RightHand
							{
								OFFSET -3.64134 -0.00000 -0.00000
								CHANNELS 3 Zrotation Yrotation Xrotation
								JOINT RightFingerBase
								{
									OFFSET 0 0 0
									CHANNELS 3 Zrotation Yrotation Xrotation
									JOINT RightHandIndex1
									{
										OFFSET -0.73481 -0.00000 -0.00000
										CHANNELS 3 Zrotation Yrotation Xrotation
										End Site
										{
											OFFSET -0.59242 -0.00000 -0.00000
										}
									}
								}
								JOINT RThumb
								{
									OFFSET 0 0 0
									CHANNELS 3 Zrotation Yrotation Xrotation
									End Site
									{
										OFFSET -0.60147 -0.00000 0.60147
									}
								}
							}
						}
					}
				}
			}
		}
	}
}
MOTION
Frames: 6
Frame Time: .0083333
-0.0806 17.9917 -0.7632 0 0 0 0 0 0 -21 0 0 0 0 0 0 0 0 0 0 0 0 0 0 21 0 0 0 0 0 0 0 0 0 0 0 0 0 0 0 0 0 0 0 0 0 0 -16 0 0 21 0 0 11 0 0 0 -8 0 0 0 0 0 0 0 0 0 0 0 0 0 0 0 0 0 0 0 0 8 0 0 0 0 0 0 0 0 0 0 0 0 0 0 0 0 0
-0.0806 17.9917 -0.7632 1.1169 -11.0917 2.8550 0.0000 0.0000 0.0000 -21.6070 -1.5552 1.6786 0.3286 3.6845 10.1906 0.3111 2.8624 -11.9854 0.3887 -4.0034 -11.0862 0.0000 0.0000 0.0000 15.3817 11.6532 -4.7973 -1.7348 -8.2904 23.5997 -0.7984 2.2640 -16.2670 -0.0458 -1.3812 3.7983 -3.4679 -1.6849 -1.3469 1.9760 -2.2120 -0.4089 3.9350 -1.1129 0.5446 -9.8563 -2.7079 -21.3020 4.5518 -1.8251 28.0642 3.1311 -1.2667 13.1194 -0.0000 0.0000 0.0000 -83.0279 -8.0465 52.7386 76.0233 -59.2488 -47.9263 -0.0000 0.0000 -2.2960 31.3992 18.3969 10.9037 -7.1250 0.0000 -0.0000 3.3418 51.2386 0.5141 -0.0000 0.0000 0.0000 84.6893 -3.2706 20.3454 -16.5613 26.2758 -3.8911 0.0000 0.0000 20.4671 -17.8642 8.1442 -2.6143 7.1250 -0.0000 -0.0000 6.5089 -21.4509 3.7012
-0.0804 17.9940 -0.7658 1.1391 -10.9629 2.9107 0.0000 0.0000 0.0000 -21.6207 -1.6487 1.6740 0.3227 3.6515 10.0981 0.3050 2.8608 -11.8843 0.3930 -4.0255 -11.1484 0.0000 0.0000 0.0000 15.3535 11.5988 -4.8883 -1.7383 -8.2982 23.6236 -0.8022 2.1671 -16.3277 -0.0375 -1.2500 3.4370 -3.6885 -1.6963 -1.0453 2.1637 -2.2359 -0.7490 4.2697 -1.1079 0.0440 -9.8815 -2.5094 -21.2366 4.3182 -1.4689 28.6070 3.1179 -1.1616 13.2994 -0.0000 0.0000 0.0000 -83.4066 -8.2216 52.7461 74.7886 -59.1074 -46.8660 -0.0000 0.0000 -2.7458 31.3660 18.4167 10.9008 -7.1250 0.0000 -0.0000 3.3051 51.2548 0.5097 -0.0000 0.0000 0.0000 84.3301 -3.7524 20.5350 -16.6269 26.3633 -3.9202 0.0000 0.0000 20.3051 -17.7699 8.0956 -2.5841 7.1250 -0.0000 -0.0000 6.5779 -21.5064 3.7326
-0.0812 17.9927 -0.7678 1.1799 -10.9553 2.8298 0.0000 0.0000 0.0000 -21.6370 -1.4485 1.7411 0.3160 3.6136 9.9919 0.3051 2.7069 -11.7870 0.4046 -4.0835 -11.3118 0.0000 0.0000 0.0000 15.3295 11.5467 -4.8358 -1.7442 -8.3117 23.6648 -0.8051 2.2261 -16.3454 -0.0344 -1.1974 3.2922 -3.5060 -1.6703 -1.3365 1.9764 -2.1927 -0.5493 3.9603 -1.0976 0.3941 -9.6416 -2.3763 -21.2638 4.2235 -1.3297 28.6568 3.0652 -1.0881 13.3091 -0.0000 -0.0000 0.0000 -83.1075 -9.1991 52.7221 73.4332 -58.9371 -45.7039 -0.0000 0.0000 -3.4273 31.3780 18.5321 10.9702 -7.1250 0.0000 -0.0000 3.3030 51.3876 0.5202 -0.0000 -0.0000 0.0000 84.6223 -3.4686 20.4065 -16.6296 26.3669 -3.9214 0.0000 0.0000 20.4967 -17.6215 8.0005 -2.5313 7.1250 -0.0000 -0.0000 6.6868 -21.6128 3.7790
-0.0817 17.9904 -0.7691 1.2605 -10.9863 2.7349 0.0000 0.0000 0.0000 -21.7068 -1.2424 1.8226 0.3093 3.5755 9.8855 0.3038 2.5927 -11.6942 0.4124 -4.1223 -11.4209 0.0000 0.0000 0.0000 15.2519 11.5025 -4.7629 -1.7480 -8.3202 23.6911 -0.8016 2.3247 -16.2886 -0.0464 -1.3899 3.8223 -3.4792 -1.6269 -1.4908 1.8751 -2.1293 -0.4009 3.8346 -1.0730 0.6223 -9.5901 -2.2755 -21.4519 4.2050 -1.1758 28.8485 3.0818 -1.0215 13.4144 0.0000 -0.0000 0.0000 -83.0233 -10.0969 52.7370 71.9977 -58.7393 -44.4755 -0.0000 0.0000 -3.7373 31.4476 18.8863 11.1970 -7.1250 0.0000 -0.0000 3.3295 51.8012 0.5581 0.0000 -0.0000 0.0000 84.7603 -3.1791 20.2669 -16.5754 26.2947 -3.8974 0.0000 0.0000 20.7007 -17.5760 7.7945 -2.4599 7.1250 -0.0000 -0.0000 6.7234 -21.8292 3.7667
-0.0817 17.9905 -0.7703 1.2585 -10.9865 2.7293 0.0000 0.0000 0.0000 -21.7034 -1.2125 1.8219 0.3053 3.5522 9.8201 0.3011 2.6026 -11.6550 0.4026 -4.0738 -11.2842 0.0000 0.0000 0.0000 15.2536 11.4959 -4.7651 -1.7486 -8.3216 23.6953 -0.7977 2.3345 -16.2452 -0.0494 -1.4349 3.9464 -3.4071 -1.5993 -1.5928 1.8459 -2.0902 -0.3634 3.7611 -1.0557 0.7107 -9.6582 -2.1544 -21.6312 4.2294 -0.9630 29.1240 3.1491 -0.9397 13.5505 0.0000 -0.0000 0.0000 -83.0281 -10.8020 52.8656 70.4146 -58.4998 -43.1240 -0.0000 0.0000 -3.1840 31.6246 19.1270 11.4076 -7.1250 0.0000 -0.0000 3.4824 52.1075 0.6100 0.0000 -0.0000 0.0000 84.8083 -3.0554 20.2342 -16.5854 26.3079 -3.9018 0.0000 0.0000 20.7068 -17.5213 7.5470 -2.3744 7.1250 -0.0000 -0.0000 6.7677 -22.0891 3.7516
